<svg xmlns="http://www.w3.org/2000/svg" width="461.981" height="376.598" viewBox="0 0 461.981 376.598">
  <g id="popup" transform="translate(-6500.876 4604.752)">
    <g id="popup_2" transform="translate(6499 -4514.671)" fill="#f19c00">
      <path d="M 341.3680419921875 285.016357421875 L 188.1446685791016 283.0154724121094 L 188.1504974365234 283.0155944824219 L 118.4623336791992 281.8339233398438 L 62.75791168212891 279.4544677734375 L 62.72591018676758 279.453125 L 62.69391250610352 279.453125 C 58.40785217285156 279.453125 54.25085067749023 278.6139831542969 50.33826446533203 276.9591674804688 C 46.55844116210938 275.3604125976562 43.16349792480469 273.0713500976562 40.24773406982422 270.1555786132812 C 37.33197021484375 267.2398071289062 35.04291152954102 263.8448181152344 33.44414520263672 260.0650024414062 C 31.7893238067627 256.1524658203125 30.95020484924316 251.9954071044922 30.95020484924316 247.7094116210938 L 30.95020484924316 247.598876953125 L 30.93402862548828 247.4895782470703 L 3.376154899597168 61.49859619140625 C 3.390270471572876 57.25107955932617 4.229126930236816 53.13174438476562 5.869911193847656 49.25234985351562 C 7.468676090240479 45.47252655029297 9.757735252380371 42.07758331298828 12.67349910736084 39.16181945800781 C 15.58926391601562 36.24605560302734 18.98420524597168 33.95699691772461 22.76402854919434 32.35823059082031 C 26.67661666870117 30.70340728759766 30.83361625671387 29.86429023742676 35.11967468261719 29.86429023742676 L 35.19355773925781 29.86429023742676 L 35.26708602905273 29.85705375671387 L 321.3184509277344 1.607113122940063 L 321.7965087890625 1.559877872467041 L 322.158203125 1.243760108947754 L 419.95947265625 -84.23973083496094 L 383.4516906738281 -6.593122005462646 L 382.3605651855469 -4.272416114807129 L 384.918212890625 -4.458827972412109 L 427.96630859375 -7.596840381622314 C 430.0550231933594 -7.597758293151855 431.9287414550781 -7.650572299957275 433.7412109375 -7.701710224151611 C 435.2859802246094 -7.745239734649658 436.7449645996094 -7.786416530609131 438.122314453125 -7.786416530609131 C 440.9813232421875 -7.786416530609131 444.0683288574219 -7.636122226715088 447.2697448730469 -6.546122074127197 C 450.4021911621094 -5.479534149169922 453.4945678710938 -3.58271050453186 457.0016174316406 -0.5766515731811523 C 459.2743835449219 1.371407270431519 460.84326171875 3.811113119125366 461.6646728515625 6.674760341644287 C 462.335205078125 9.012290000915527 462.5198669433594 11.64852523803711 462.2134399414062 14.51023101806641 C 461.6795043945312 19.49740791320801 459.8191528320312 23.4629955291748 459.8004455566406 23.50246620178223 L 459.7741394042969 23.55793571472168 L 459.7517395019531 23.61681938171387 L 422.9605102539062 121.011116027832 L 373.2038879394531 252.7277374267578 C 371.7961730957031 256.219970703125 369.9083557128906 260.7578125 367.7783203125 264.9176940917969 C 365.6233215332031 269.1264038085938 363.4572143554688 272.5145874023438 361.15625 275.27587890625 C 358.5211486816406 278.4381713867188 355.7374267578125 280.7586364746094 352.6459045410156 282.3699951171875 C 349.2320861816406 284.1492919921875 345.5431823730469 285.0149841308594 341.3680419921875 285.016357421875 Z" stroke="none"/>
      <path d="M 415.5552978515625 -78.3980712890625 L 322.4219970703125 3.005401611328125 L 321.4658813476562 3.099838256835938 L 35.26742553710938 31.36428833007812 L 35.11968994140625 31.36428833007812 C 31.03549194335938 31.36428833007812 27.07504272460938 32.16352844238281 23.34835815429688 33.73977661132812 C 19.74737548828125 35.26284790039062 16.51266479492188 37.4439697265625 13.73419189453125 40.22247314453125 C 10.9556884765625 43.0009765625 8.774566650390625 46.23565673828125 7.251434326171875 49.83671569824219 C 5.703033447265625 53.49760437011719 4.9044189453125 57.38400268554688 4.876739501953125 61.39183044433594 L 32.45016479492188 247.4883422851562 L 32.45016479492188 247.7094116210938 C 32.45016479492188 251.7935943603516 33.24942016601562 255.7540283203125 34.82562255859375 259.4806518554688 C 36.3487548828125 263.0817260742188 38.52987670898438 266.31640625 41.30838012695312 269.0949096679688 C 44.08685302734375 271.8734130859375 47.32156372070312 274.0545349121094 50.92254638671875 275.5775756835938 C 54.64923095703125 277.1538391113281 58.60968017578125 277.9530944824219 62.69387817382812 277.9530944824219 L 62.7579345703125 277.9530944824219 L 62.82192993164062 277.9558410644531 L 118.5054016113281 280.3344116210938 L 188.164306640625 281.5155944824219 L 341.3772277832031 283.5163269042969 C 345.3011474609375 283.513671875 348.7606201171875 282.7035522460938 351.9526062011719 281.039794921875 C 354.86474609375 279.52197265625 357.498291015625 277.3224792480469 360.0038757324219 274.315673828125 C 362.2330017089844 271.6405334472656 364.3392944335938 268.3428344726562 366.4431762695312 264.2340393066406 C 368.5430908203125 260.1329650878906 370.4116821289062 255.6419677734375 371.8070068359375 252.1808471679688 L 458.3897399902344 22.97434997558594 L 458.4453735351562 22.8590087890625 C 458.493896484375 22.75517272949219 460.241455078125 18.97654724121094 460.7302551269531 14.27197265625 C 461.3428039550781 8.375778198242188 459.7598571777344 3.763153076171875 456.0254211425781 0.562164306640625 C 452.6679992675781 -2.315597534179688 449.7321166992188 -4.123153686523438 446.7861938476562 -5.126220703125 C 444.3657531738281 -5.950347900390625 441.8556213378906 -6.286468505859375 438.1222534179688 -6.286407470703125 C 436.7662963867188 -6.286407470703125 435.31787109375 -6.245529174804688 433.7843627929688 -6.202285766601562 C 431.9768981933594 -6.1513671875 430.1089782714844 -6.09869384765625 428.0210571289062 -6.096893310546875 L 379.9119262695312 -2.5899658203125 L 415.5552978515625 -78.3980712890625 M 424.3636779785156 -90.08154296875 L 384.8091125488281 -5.954910278320312 L 427.9111938476562 -9.096847534179688 C 440.8182373046875 -9.096832275390625 446.9664306640625 -11.15385437011719 457.9778137207031 -1.715591430664062 C 468.9892272949219 7.7227783203125 461.1549377441406 24.1468505859375 461.1549377441406 24.1468505859375 L 374.6015014648438 253.2726593017578 C 367.7853698730469 270.1836547851562 359.7178039550781 286.516357421875 341.3577880859375 286.516357421875 L 188.1251220703125 284.5153503417969 L 118.4162902832031 283.3333435058594 L 62.69387817382812 280.9530944824219 C 44.3338623046875 280.9530944824219 29.45016479492188 266.0693359375 29.45016479492188 247.7094116210938 L 1.876007080078125 61.60797119140625 C 1.876007080078125 43.24803161621094 16.75967407226562 28.36428833007812 35.11968994140625 28.36428833007812 L 321.1710510253906 0.114349365234375 L 424.3636779785156 -90.08154296875 Z" stroke="none" fill="#444037"/>
    </g>
    <path id="Path_109280" data-name="Path 109280" d="M28.272,13.468a2.479,2.479,0,0,0-1.449.525,4.352,4.352,0,0,1-2.424.8A5.162,5.162,0,0,1,19.427,9.42a5.172,5.172,0,0,1,4.922-5.372,4.4,4.4,0,0,1,2.474.8,2.553,2.553,0,0,0,1.449.525A1.659,1.659,0,0,0,30.021,3.7c0-.949-.675-1.574-1.674-2.224A8.328,8.328,0,0,0,24.3.5a8.981,8.981,0,0,0-8.82,8.92,8.958,8.958,0,0,0,8.87,8.92,7.826,7.826,0,0,0,3.973-.974c1.074-.65,1.7-1.249,1.7-2.224A1.659,1.659,0,0,0,28.272,13.468Zm7.771,3.023V2.149a1.824,1.824,0,1,0-3.648,0V16.491a1.824,1.824,0,0,0,3.648,0ZM40.89,3.673a1.851,1.851,0,0,0,1.849-1.8,1.85,1.85,0,0,0-3.7,0A1.851,1.851,0,0,0,40.89,3.673Zm0,1.424a1.84,1.84,0,0,0-1.824,1.849v9.52a1.824,1.824,0,1,0,3.648,0V6.946A1.84,1.84,0,0,0,40.89,5.1Zm14.392,8.9a2.458,2.458,0,0,0-1.374.55,2.915,2.915,0,0,1-1.824.575,3.152,3.152,0,0,1-3.248-3.448A3.16,3.16,0,0,1,52.084,8.2a2.915,2.915,0,0,1,1.824.575,2.458,2.458,0,0,0,1.374.55,1.422,1.422,0,0,0,1.449-1.4,2.285,2.285,0,0,0-1.024-1.7,5.762,5.762,0,0,0-3.748-1.2,6.553,6.553,0,0,0-6.721,6.646,6.548,6.548,0,0,0,6.721,6.621,5.762,5.762,0,0,0,3.748-1.2,2.285,2.285,0,0,0,1.024-1.7A1.422,1.422,0,0,0,55.283,13.992Zm15.392,1.624L66.5,10.969l3.323-3.048a1.6,1.6,0,0,0,.45-1.174A1.664,1.664,0,0,0,68.626,5.1a1.83,1.83,0,0,0-1.224.525L62.879,9.995V2.149a1.824,1.824,0,1,0-3.648,0V16.491a1.824,1.824,0,0,0,3.648,0V14.267L64.2,13.043l4.2,4.747a1.486,1.486,0,0,0,1.124.5,1.61,1.61,0,0,0,1.6-1.6A1.583,1.583,0,0,0,70.674,15.617ZM88.365,5.047a4.137,4.137,0,0,0-4.173,2.9v-5.8a1.824,1.824,0,1,0-3.648,0V16.491a1.824,1.824,0,0,0,3.648,0V10.719a2.931,2.931,0,0,1,2.8-2.574c1.374,0,2.4.9,2.4,2.973v5.372a1.824,1.824,0,0,0,3.648,0V11.119C93.037,6.771,90.913,5.047,88.365,5.047Zm13.793-.025a6.6,6.6,0,0,0-6.621,6.7c0,4.548,3.548,6.571,6.921,6.571a6.524,6.524,0,0,0,3.648-1,1.859,1.859,0,0,0,.875-1.5,1.187,1.187,0,0,0-1.224-1.249,3.669,3.669,0,0,0-1.349.425,4.3,4.3,0,0,1-1.8.375,3.03,3.03,0,0,1-3.273-2.4l6.846.1c1.5,0,2.274-.5,2.274-1.949A6.287,6.287,0,0,0,102.157,5.022Zm0,3.173a2.522,2.522,0,0,1,2.7,2.3H99.334A2.622,2.622,0,0,1,102.157,8.2Zm16.166-3.148a4.078,4.078,0,0,0-3.723,2.9v-1a1.824,1.824,0,1,0-3.648,0v9.545a1.824,1.824,0,0,0,3.648,0V10.719a3.058,3.058,0,0,1,3.1-2.3c1.549,0,2.324-.7,2.324-1.7A1.592,1.592,0,0,0,118.324,5.047Zm9.32-.025a6.6,6.6,0,0,0-6.621,6.7c0,4.548,3.548,6.571,6.921,6.571a6.524,6.524,0,0,0,3.648-1,1.859,1.859,0,0,0,.875-1.5,1.187,1.187,0,0,0-1.224-1.249,3.669,3.669,0,0,0-1.349.425,4.3,4.3,0,0,1-1.8.375,3.03,3.03,0,0,1-3.273-2.4l6.846.1c1.5,0,2.274-.5,2.274-1.949A6.287,6.287,0,0,0,127.644,5.022Zm0,3.173a2.522,2.522,0,0,1,2.7,2.3H124.82A2.622,2.622,0,0,1,127.644,8.2Zm22.513,6.871c-.275-.025-.7.075-.949.075-.525,0-.75-.375-.75-1.1V8.021h1.549A1.357,1.357,0,0,0,151.456,6.6a1.357,1.357,0,0,0-1.449-1.424h-1.549V3.6a1.824,1.824,0,1,0-3.648,0V5.172h-.6A1.378,1.378,0,0,0,142.736,6.6a1.378,1.378,0,0,0,1.474,1.424h.6v5.9c0,3.8,1.874,4.373,3.673,4.373,1.874,0,2.973-.675,2.973-1.924A1.184,1.184,0,0,0,150.157,15.067Zm9.52-10.045a6.734,6.734,0,0,0-6.721,6.7,6.722,6.722,0,0,0,13.443,0A6.749,6.749,0,0,0,159.676,5.022Zm0,3.173a3.231,3.231,0,0,1,3.1,3.523,3.127,3.127,0,1,1-6.222,0A3.235,3.235,0,0,1,159.676,8.2Zm22.738-5.122a2.964,2.964,0,0,1,.7.125,4.786,4.786,0,0,0,1.1.25,1.279,1.279,0,0,0,1.349-1.324A1.739,1.739,0,0,0,184.588.65,5.483,5.483,0,0,0,181.864,0c-1.549,0-4.5.7-4.5,4.273v.9h-.7A1.378,1.378,0,0,0,175.193,6.6a1.378,1.378,0,0,0,1.474,1.424h.7v8.5a1.824,1.824,0,0,0,3.648,0v-8.5h1.774s1.474-.6,1.474-1.424a1.378,1.378,0,0,0-1.474-1.424h-1.774v-.7A1.3,1.3,0,0,1,182.414,3.073ZM196.132,5.1a1.829,1.829,0,0,0-1.824,1.8V7a3.718,3.718,0,0,0-3.473-1.974c-2.724,0-6.022,2.2-6.022,6.646,0,4.548,3.273,6.671,6.022,6.671a3.769,3.769,0,0,0,3.473-1.8,1.808,1.808,0,0,0,1.824,1.774,1.851,1.851,0,0,0,1.849-1.8V6.9A1.868,1.868,0,0,0,196.132,5.1Zm-4.623,10.12c-1.524,0-3.048-1.2-3.048-3.548,0-2.324,1.524-3.523,3.048-3.523,1.249,0,2.948.9,2.948,3.523C194.458,14.317,192.759,15.217,191.509,15.217ZM210.949,5.1A1.91,1.91,0,0,0,209.2,6.4l-2.9,6.771L203.4,6.4a1.911,1.911,0,0,0-1.749-1.3,1.653,1.653,0,0,0-1.674,1.649,2.235,2.235,0,0,0,.2.85l4.3,9.22a1.973,1.973,0,0,0,1.824,1.4,2,2,0,0,0,1.824-1.4l4.3-9.22a2.235,2.235,0,0,0,.2-.85A1.653,1.653,0,0,0,210.949,5.1Zm9.395-.075a6.734,6.734,0,0,0-6.721,6.7,6.722,6.722,0,0,0,13.443,0A6.749,6.749,0,0,0,220.344,5.022Zm0,3.173a3.231,3.231,0,0,1,3.1,3.523,3.127,3.127,0,1,1-6.222,0A3.235,3.235,0,0,1,220.344,8.2Zm16.591-3.148a4.078,4.078,0,0,0-3.723,2.9v-1a1.824,1.824,0,1,0-3.648,0v9.545a1.824,1.824,0,0,0,3.648,0V10.719a3.058,3.058,0,0,1,3.1-2.3c1.549,0,2.324-.7,2.324-1.7A1.592,1.592,0,0,0,236.935,5.047Zm6-1.374a1.851,1.851,0,0,0,1.849-1.8,1.85,1.85,0,0,0-3.7,0A1.851,1.851,0,0,0,242.932,3.673Zm0,1.424a1.84,1.84,0,0,0-1.824,1.849v9.52a1.824,1.824,0,1,0,3.648,0V6.946A1.84,1.84,0,0,0,242.932,5.1Zm11.269,9.97c-.275-.025-.7.075-.949.075-.525,0-.75-.375-.75-1.1V8.021h1.549A1.357,1.357,0,0,0,255.5,6.6a1.357,1.357,0,0,0-1.449-1.424H252.5V3.6a1.824,1.824,0,1,0-3.648,0V5.172h-.6A1.378,1.378,0,0,0,246.779,6.6a1.378,1.378,0,0,0,1.474,1.424h.6v5.9c0,3.8,1.874,4.373,3.673,4.373,1.874,0,2.973-.675,2.973-1.924A1.184,1.184,0,0,0,254.2,15.067Zm9.42-10.045a6.6,6.6,0,0,0-6.621,6.7c0,4.548,3.548,6.571,6.921,6.571a6.524,6.524,0,0,0,3.648-1,1.859,1.859,0,0,0,.875-1.5,1.187,1.187,0,0,0-1.224-1.249,3.669,3.669,0,0,0-1.349.425,4.3,4.3,0,0,1-1.8.375,3.03,3.03,0,0,1-3.273-2.4l6.846.1c1.5,0,2.274-.5,2.274-1.949A6.287,6.287,0,0,0,263.62,5.022Zm0,3.173a2.522,2.522,0,0,1,2.7,2.3H260.8A2.622,2.622,0,0,1,263.62,8.2Zm22.513,6.871c-.275-.025-.7.075-.949.075-.525,0-.75-.375-.75-1.1V8.021h1.549A1.357,1.357,0,0,0,287.433,6.6a1.357,1.357,0,0,0-1.449-1.424h-1.549V3.6a1.824,1.824,0,0,0-3.648,0V5.172h-.6A1.378,1.378,0,0,0,278.712,6.6a1.378,1.378,0,0,0,1.474,1.424h.6v5.9c0,3.8,1.874,4.373,3.673,4.373,1.874,0,2.973-.675,2.973-1.924A1.184,1.184,0,0,0,286.133,15.067ZM297.5,5.047a4.137,4.137,0,0,0-4.173,2.9v-5.8a1.824,1.824,0,0,0-3.648,0V16.491a1.824,1.824,0,0,0,3.648,0V10.719a2.931,2.931,0,0,1,2.8-2.574c1.374,0,2.4.9,2.4,2.973v5.372a1.824,1.824,0,0,0,3.648,0V11.119C302.175,6.771,300.051,5.047,297.5,5.047Zm13.793-.025a6.6,6.6,0,0,0-6.621,6.7c0,4.548,3.548,6.571,6.921,6.571a6.524,6.524,0,0,0,3.648-1,1.859,1.859,0,0,0,.875-1.5,1.187,1.187,0,0,0-1.224-1.249,3.669,3.669,0,0,0-1.349.425,4.3,4.3,0,0,1-1.8.375,3.03,3.03,0,0,1-3.273-2.4l6.846.1c1.5,0,2.274-.5,2.274-1.949A6.287,6.287,0,0,0,311.295,5.022Zm0,3.173a2.522,2.522,0,0,1,2.7,2.3h-5.522A2.622,2.622,0,0,1,311.295,8.2ZM7.146,53.954a3.718,3.718,0,0,0-3.473,1.974v-.1a1.829,1.829,0,0,0-1.824-1.8A1.868,1.868,0,0,0,0,55.828V70.22a1.834,1.834,0,0,0,1.824,1.824A1.878,1.878,0,0,0,3.7,70.22v-4.7a3.785,3.785,0,0,0,3.448,1.749c2.749,0,6.022-2.124,6.022-6.671C13.168,56.153,9.87,53.954,7.146,53.954ZM6.472,64.149c-1.249,0-2.948-.9-2.948-3.548,0-2.624,1.7-3.523,2.948-3.523,1.524,0,3.048,1.2,3.048,3.523C9.52,62.949,8,64.149,6.472,64.149Zm16.566-10.17a4.078,4.078,0,0,0-3.723,2.9v-1a1.824,1.824,0,1,0-3.648,0v9.545a1.824,1.824,0,0,0,3.648,0V59.651a3.058,3.058,0,0,1,3.1-2.3c1.549,0,2.324-.7,2.324-1.7A1.592,1.592,0,0,0,23.038,53.979Zm9.42-.025a6.734,6.734,0,0,0-6.721,6.7,6.722,6.722,0,0,0,13.443,0A6.749,6.749,0,0,0,32.458,53.954Zm0,3.173a3.507,3.507,0,1,1-3.123,3.523A3.231,3.231,0,0,1,32.458,57.128Zm25.886-3.148a5.1,5.1,0,0,0-4.623,3.073A4.252,4.252,0,0,0,49.5,53.979a4.137,4.137,0,0,0-4.173,2.9v-1a1.824,1.824,0,1,0-3.648,0v9.545a1.824,1.824,0,0,0,3.648,0V59.651a2.931,2.931,0,0,1,2.8-2.574c1.374,0,2.4.9,2.4,2.973v5.372a1.824,1.824,0,0,0,3.648,0V59.651a2.956,2.956,0,0,1,2.8-2.574c1.4,0,2.424.9,2.424,2.973v5.372a1.824,1.824,0,0,0,3.648,0V60.051C63.041,55.7,60.892,53.979,58.344,53.979Zm14.892-.025a3.718,3.718,0,0,0-3.473,1.974v-.1a1.829,1.829,0,0,0-1.824-1.8,1.868,1.868,0,0,0-1.849,1.8V70.22a1.834,1.834,0,0,0,1.824,1.824,1.878,1.878,0,0,0,1.874-1.824v-4.7a3.785,3.785,0,0,0,3.448,1.749c2.749,0,6.022-2.124,6.022-6.671C79.257,56.153,75.959,53.954,73.236,53.954Zm-.675,10.195c-1.249,0-2.948-.9-2.948-3.548,0-2.624,1.7-3.523,2.948-3.523,1.524,0,3.048,1.2,3.048,3.523C75.609,62.949,74.085,64.149,72.561,64.149ZM88.177,64c-.275-.025-.7.075-.949.075-.525,0-.75-.375-.75-1.1V56.953h1.549a1.424,1.424,0,1,0,0-2.848H86.478V52.53a1.824,1.824,0,1,0-3.648,0V54.1h-.6a1.425,1.425,0,1,0,0,2.848h.6v5.9c0,3.8,1.874,4.373,3.673,4.373,1.874,0,2.973-.675,2.973-1.924A1.184,1.184,0,0,0,88.177,64Zm21.663-9.97a1.829,1.829,0,0,0-1.824,1.8v.1a3.718,3.718,0,0,0-3.473-1.974c-2.724,0-6.022,2.2-6.022,6.646,0,4.548,3.273,6.671,6.022,6.671a3.769,3.769,0,0,0,3.473-1.8,1.808,1.808,0,0,0,1.824,1.774,1.851,1.851,0,0,0,1.849-1.8v-9.62A1.868,1.868,0,0,0,109.841,54.029Zm-4.623,10.12c-1.524,0-3.048-1.2-3.048-3.548,0-2.324,1.524-3.523,3.048-3.523,1.249,0,2.948.9,2.948,3.523C108.167,63.249,106.468,64.149,105.218,64.149Zm17.291-10.17a4.137,4.137,0,0,0-4.173,2.9v-1a1.824,1.824,0,1,0-3.648,0v9.545a1.824,1.824,0,0,0,3.648,0V59.651a2.931,2.931,0,0,1,2.8-2.574c1.374,0,2.4.9,2.4,2.973v5.372a1.824,1.824,0,0,0,3.648,0V60.051C127.181,55.7,125.058,53.979,122.509,53.979Zm18.465-4.722a1.846,1.846,0,0,0-1.824,1.8v4.822a3.746,3.746,0,0,0-3.448-1.924c-2.724,0-6.022,2.2-6.022,6.646,0,4.548,3.273,6.671,6.022,6.671a3.769,3.769,0,0,0,3.473-1.8A1.808,1.808,0,0,0,141,67.247a1.851,1.851,0,0,0,1.849-1.8V51.056A1.874,1.874,0,0,0,140.974,49.257Zm-4.6,14.892c-1.524,0-3.048-1.2-3.048-3.548,0-2.324,1.524-3.523,3.048-3.523,1.249,0,2.948.9,2.948,3.523C139.325,63.249,137.626,64.149,136.376,64.149Zm21.289-10.195c-2.349,0-4.747,1.249-4.747,3.873,0,1.8,1.074,3.173,3.623,3.9l1.3.4c1.174.35,1.274.9,1.274,1.149,0,.5-.475,1-1.574,1a2.636,2.636,0,0,1-2.149-1.024,1.91,1.91,0,0,0-1.474-.825,1.323,1.323,0,0,0-1.4,1.374,2.753,2.753,0,0,0,.775,1.724,5.545,5.545,0,0,0,4.248,1.7c2.6,0,5.2-1.324,5.2-4.148,0-2.274-1.724-3.223-3.623-3.8l-1.524-.425c-1.049-.3-1.1-.8-1.1-1.049,0-.575.5-.974,1.3-.974a2.046,2.046,0,0,1,1.549.725,1.951,1.951,0,0,0,1.5.725,1.292,1.292,0,0,0,1.4-1.374,1.852,1.852,0,0,0-.45-1.174A5.108,5.108,0,0,0,157.665,53.954Zm13.318,0a6.6,6.6,0,0,0-6.621,6.7c0,4.548,3.548,6.571,6.921,6.571a6.524,6.524,0,0,0,3.648-1,1.859,1.859,0,0,0,.875-1.5,1.187,1.187,0,0,0-1.224-1.249,3.669,3.669,0,0,0-1.349.425,4.3,4.3,0,0,1-1.8.375,3.03,3.03,0,0,1-3.273-2.4l6.846.1c1.5,0,2.274-.5,2.274-1.949A6.287,6.287,0,0,0,170.983,53.954Zm0,3.173a2.522,2.522,0,0,1,2.7,2.3h-5.522A2.622,2.622,0,0,1,170.983,57.128Zm14.667-3.173a6.6,6.6,0,0,0-6.621,6.7c0,4.548,3.548,6.571,6.921,6.571a6.524,6.524,0,0,0,3.648-1,1.859,1.859,0,0,0,.875-1.5,1.187,1.187,0,0,0-1.224-1.249,3.669,3.669,0,0,0-1.349.425,4.3,4.3,0,0,1-1.8.375,3.03,3.03,0,0,1-3.273-2.4l6.846.1c1.5,0,2.274-.5,2.274-1.949A6.287,6.287,0,0,0,185.65,53.954Zm0,3.173a2.522,2.522,0,0,1,2.7,2.3h-5.522A2.622,2.622,0,0,1,185.65,57.128ZM208.163,64c-.275-.025-.7.075-.949.075-.525,0-.75-.375-.75-1.1V56.953h1.549a1.424,1.424,0,1,0,0-2.848h-1.549V52.53a1.824,1.824,0,0,0-3.648,0V54.1h-.6a1.425,1.425,0,1,0,0,2.848h.6v5.9c0,3.8,1.874,4.373,3.673,4.373,1.874,0,2.973-.675,2.973-1.924A1.184,1.184,0,0,0,208.163,64Zm11.369-10.02a4.137,4.137,0,0,0-4.173,2.9v-5.8a1.824,1.824,0,1,0-3.648,0V65.423a1.824,1.824,0,0,0,3.648,0V59.651a2.931,2.931,0,0,1,2.8-2.574c1.374,0,2.4.9,2.4,2.973v5.372a1.824,1.824,0,0,0,3.648,0V60.051C224.2,55.7,222.08,53.979,219.532,53.979Zm13.793-.025a6.6,6.6,0,0,0-6.621,6.7c0,4.548,3.548,6.571,6.921,6.571a6.524,6.524,0,0,0,3.648-1,1.859,1.859,0,0,0,.875-1.5,1.187,1.187,0,0,0-1.224-1.249,3.669,3.669,0,0,0-1.349.425,4.3,4.3,0,0,1-1.8.375,3.03,3.03,0,0,1-3.273-2.4l6.846.1c1.5,0,2.274-.5,2.274-1.949A6.287,6.287,0,0,0,233.324,53.954Zm0,3.173a2.522,2.522,0,0,1,2.7,2.3H230.5A2.622,2.622,0,0,1,233.324,57.128Zm19.839,6.7V59.9h4.1a1.654,1.654,0,0,0,1.649-1.6,1.63,1.63,0,0,0-1.649-1.549h-4.1V52.88h6.422a1.637,1.637,0,1,0,0-3.273h-8.1a2.009,2.009,0,0,0-2.074,2.074V65.023a2.009,2.009,0,0,0,2.074,2.074h8.345a1.637,1.637,0,1,0,0-3.273Zm18.515-9.845a4.137,4.137,0,0,0-4.173,2.9v-1a1.824,1.824,0,1,0-3.648,0v9.545a1.824,1.824,0,0,0,3.648,0V59.651a2.931,2.931,0,0,1,2.8-2.574c1.374,0,2.4.9,2.4,2.973v5.372a1.824,1.824,0,0,0,3.648,0V60.051C276.351,55.7,274.227,53.979,271.679,53.979Zm20.339,1.849a1.868,1.868,0,0,0-1.849-1.8,1.829,1.829,0,0,0-1.824,1.8v.1a3.718,3.718,0,0,0-3.473-1.974c-2.724,0-6.022,2.2-6.022,6.646,0,4.548,3.273,6.671,6.022,6.671a3.785,3.785,0,0,0,3.448-1.749v1.324c0,1.174-.9,2.249-2.823,2.249a11.1,11.1,0,0,1-2.424-.4,2.251,2.251,0,0,0-.7-.1,1.414,1.414,0,0,0-1.424,1.449,1.72,1.72,0,0,0,1.2,1.549,9.193,9.193,0,0,0,3.323.625c2.649,0,6.5-1.3,6.5-5.372v-1a1.941,1.941,0,0,0,.05-.4Zm-6.472,8.321c-1.524,0-3.048-1.2-3.048-3.548,0-2.324,1.524-3.523,3.048-3.523,1.249,0,2.948.9,2.948,3.523C288.495,63.249,286.8,64.149,285.546,64.149Zm13.118,1.274V51.081a1.824,1.824,0,1,0-3.648,0V65.423a1.824,1.824,0,0,0,3.648,0ZM303.511,52.6a1.8,1.8,0,1,0-1.849-1.8A1.851,1.851,0,0,0,303.511,52.6Zm0,1.424a1.84,1.84,0,0,0-1.824,1.849V65.4a1.824,1.824,0,1,0,3.648,0v-9.52A1.84,1.84,0,0,0,303.511,54.029Zm9.37-.075c-2.349,0-4.747,1.249-4.747,3.873,0,1.8,1.074,3.173,3.623,3.9l1.3.4c1.174.35,1.274.9,1.274,1.149,0,.5-.475,1-1.574,1a2.636,2.636,0,0,1-2.149-1.024,1.91,1.91,0,0,0-1.474-.825,1.323,1.323,0,0,0-1.4,1.374,2.753,2.753,0,0,0,.775,1.724,5.545,5.545,0,0,0,4.248,1.7c2.6,0,5.2-1.324,5.2-4.148,0-2.274-1.724-3.223-3.623-3.8l-1.524-.425c-1.049-.3-1.1-.8-1.1-1.049,0-.575.5-.974,1.3-.974a2.046,2.046,0,0,1,1.549.725,1.951,1.951,0,0,0,1.5.725,1.292,1.292,0,0,0,1.4-1.374,1.852,1.852,0,0,0-.45-1.174A5.108,5.108,0,0,0,312.881,53.954Zm15.267.025a4.137,4.137,0,0,0-4.173,2.9v-5.8a1.824,1.824,0,1,0-3.648,0V65.423a1.824,1.824,0,0,0,3.648,0V59.651a2.931,2.931,0,0,1,2.8-2.574c1.374,0,2.4.9,2.4,2.973v5.372a1.824,1.824,0,0,0,3.648,0V60.051C332.821,55.7,330.7,53.979,328.148,53.979ZM62.979,112.931c-.275-.025-.7.075-.949.075-.525,0-.75-.375-.75-1.1v-6.022h1.549a1.424,1.424,0,1,0,0-2.848H61.279v-1.574a1.824,1.824,0,1,0-3.648,0v1.574h-.6a1.425,1.425,0,1,0,0,2.848h.6v5.9c0,3.8,1.874,4.373,3.673,4.373,1.874,0,2.973-.675,2.973-1.924A1.184,1.184,0,0,0,62.979,112.931ZM73.9,102.911a4.078,4.078,0,0,0-3.723,2.9v-1a1.824,1.824,0,1,0-3.648,0v9.545a1.824,1.824,0,0,0,3.648,0v-5.772a3.058,3.058,0,0,1,3.1-2.3c1.549,0,2.324-.7,2.324-1.7A1.592,1.592,0,0,0,73.9,102.911Zm14.017.05a1.829,1.829,0,0,0-1.824,1.8v.1a3.718,3.718,0,0,0-3.473-1.974c-2.724,0-6.022,2.2-6.022,6.646,0,4.548,3.273,6.671,6.022,6.671a3.769,3.769,0,0,0,3.473-1.8,1.808,1.808,0,0,0,1.824,1.774,1.851,1.851,0,0,0,1.849-1.8v-9.62A1.868,1.868,0,0,0,87.915,102.961Zm-4.623,10.12c-1.524,0-3.048-1.2-3.048-3.548,0-2.324,1.524-3.523,3.048-3.523,1.249,0,2.948.9,2.948,3.523C86.241,112.181,84.542,113.081,83.293,113.081Zm17.291-10.17a4.137,4.137,0,0,0-4.173,2.9v-1a1.824,1.824,0,1,0-3.648,0v9.545a1.824,1.824,0,0,0,3.648,0v-5.772a2.931,2.931,0,0,1,2.8-2.574c1.374,0,2.4.9,2.4,2.973v5.372a1.824,1.824,0,0,0,3.648,0v-5.372C105.256,104.635,103.132,102.911,100.583,102.911Zm12.193-.025c-2.349,0-4.747,1.249-4.747,3.873,0,1.8,1.074,3.173,3.623,3.9l1.3.4c1.174.35,1.274.9,1.274,1.149,0,.5-.475,1-1.574,1a2.636,2.636,0,0,1-2.149-1.024,1.91,1.91,0,0,0-1.474-.825,1.323,1.323,0,0,0-1.4,1.374,2.753,2.753,0,0,0,.775,1.724,5.545,5.545,0,0,0,4.248,1.7c2.6,0,5.2-1.324,5.2-4.148,0-2.274-1.724-3.223-3.623-3.8l-1.524-.425c-1.049-.3-1.1-.8-1.1-1.049,0-.575.5-.974,1.3-.974a2.046,2.046,0,0,1,1.549.725,1.951,1.951,0,0,0,1.5.725,1.292,1.292,0,0,0,1.4-1.374,1.852,1.852,0,0,0-.45-1.174A5.108,5.108,0,0,0,112.777,102.886Zm11.094,11.469V100.013a1.824,1.824,0,1,0-3.648,0v14.342a1.824,1.824,0,0,0,3.648,0Zm13.818-11.394a1.829,1.829,0,0,0-1.824,1.8v.1a3.718,3.718,0,0,0-3.473-1.974c-2.724,0-6.022,2.2-6.022,6.646,0,4.548,3.273,6.671,6.022,6.671a3.769,3.769,0,0,0,3.473-1.8,1.808,1.808,0,0,0,1.824,1.774,1.851,1.851,0,0,0,1.849-1.8v-9.62A1.868,1.868,0,0,0,137.688,102.961Zm-4.623,10.12c-1.524,0-3.048-1.2-3.048-3.548,0-2.324,1.524-3.523,3.048-3.523,1.249,0,2.948.9,2.948,3.523C136.014,112.181,134.315,113.081,133.066,113.081Zm15.891-.15c-.275-.025-.7.075-.949.075-.525,0-.75-.375-.75-1.1v-6.022h1.549a1.424,1.424,0,1,0,0-2.848h-1.549v-1.574a1.824,1.824,0,1,0-3.648,0v1.574h-.6a1.425,1.425,0,1,0,0,2.848h.6v5.9c0,3.8,1.874,4.373,3.673,4.373,1.874,0,2.973-.675,2.973-1.924A1.184,1.184,0,0,0,148.957,112.931Zm5.4-11.394a1.8,1.8,0,1,0-1.849-1.8A1.851,1.851,0,0,0,154.354,101.537Zm0,1.424a1.84,1.84,0,0,0-1.824,1.849v9.52a1.824,1.824,0,1,0,3.648,0v-9.52A1.84,1.84,0,0,0,154.354,102.961Zm11.069-.075a6.734,6.734,0,0,0-6.721,6.7,6.722,6.722,0,0,0,13.443,0A6.749,6.749,0,0,0,165.423,102.886Zm0,3.173a3.507,3.507,0,1,1-3.123,3.523A3.231,3.231,0,0,1,165.423,106.06Zm17.041-3.148a4.137,4.137,0,0,0-4.173,2.9v-1a1.824,1.824,0,1,0-3.648,0v9.545a1.824,1.824,0,0,0,3.648,0v-5.772a2.931,2.931,0,0,1,2.8-2.574c1.374,0,2.4.9,2.4,2.973v5.372a1.824,1.824,0,0,0,3.648,0v-5.372C187.137,104.635,185.013,102.911,182.464,102.911Zm12.193-.025c-2.349,0-4.747,1.249-4.747,3.873,0,1.8,1.074,3.173,3.623,3.9l1.3.4c1.174.35,1.274.9,1.274,1.149,0,.5-.475,1-1.574,1a2.636,2.636,0,0,1-2.149-1.024,1.91,1.91,0,0,0-1.474-.825,1.323,1.323,0,0,0-1.4,1.374,2.753,2.753,0,0,0,.775,1.724,5.545,5.545,0,0,0,4.248,1.7c2.6,0,5.2-1.324,5.2-4.148,0-2.274-1.724-3.223-3.623-3.8l-1.524-.425c-1.049-.3-1.1-.8-1.1-1.049,0-.575.5-.974,1.3-.974a2.046,2.046,0,0,1,1.549.725,1.951,1.951,0,0,0,1.5.725,1.292,1.292,0,0,0,1.4-1.374,1.852,1.852,0,0,0-.45-1.174A5.108,5.108,0,0,0,194.658,102.886Zm16.591-1.349a1.8,1.8,0,1,0-1.849-1.8A1.851,1.851,0,0,0,211.249,101.537Zm0,1.424a1.84,1.84,0,0,0-1.824,1.849v9.52a1.824,1.824,0,1,0,3.648,0v-9.52A1.84,1.84,0,0,0,211.249,102.961Zm12.668-.05a4.137,4.137,0,0,0-4.173,2.9v-1a1.824,1.824,0,1,0-3.648,0v9.545a1.824,1.824,0,0,0,3.648,0v-5.772a2.931,2.931,0,0,1,2.8-2.574c1.374,0,2.4.9,2.4,2.973v5.372a1.824,1.824,0,0,0,3.648,0v-5.372C228.589,104.635,226.465,102.911,223.917,102.911Zm21.388,10.02c-.275-.025-.7.075-.949.075-.525,0-.75-.375-.75-1.1v-6.022h1.549a1.424,1.424,0,1,0,0-2.848h-1.549v-1.574a1.824,1.824,0,1,0-3.648,0v1.574h-.6a1.425,1.425,0,1,0,0,2.848h.6v5.9c0,3.8,1.874,4.373,3.673,4.373,1.874,0,2.973-.675,2.973-1.924A1.184,1.184,0,0,0,245.305,112.931Zm11.369-10.02a4.137,4.137,0,0,0-4.173,2.9v-5.8a1.824,1.824,0,1,0-3.648,0v14.342a1.824,1.824,0,0,0,3.648,0v-5.772a2.931,2.931,0,0,1,2.8-2.574c1.374,0,2.4.9,2.4,2.973v5.372a1.824,1.824,0,0,0,3.648,0v-5.372C261.347,104.635,259.223,102.911,256.674,102.911Zm13.793-.025a6.6,6.6,0,0,0-6.621,6.7c0,4.548,3.548,6.571,6.921,6.571a6.525,6.525,0,0,0,3.648-1,1.859,1.859,0,0,0,.875-1.5,1.187,1.187,0,0,0-1.224-1.249,3.669,3.669,0,0,0-1.349.425,4.3,4.3,0,0,1-1.8.375,3.03,3.03,0,0,1-3.273-2.4l6.846.1c1.5,0,2.274-.5,2.274-1.949A6.287,6.287,0,0,0,270.467,102.886Zm0,3.173a2.522,2.522,0,0,1,2.7,2.3h-5.522A2.622,2.622,0,0,1,270.467,106.06ZM77.084,149.095a1.642,1.642,0,0,0-1.649-1.624h-8.1a2.009,2.009,0,0,0-2.074,2.074v13.693a1.953,1.953,0,0,0,1.9,1.924,1.91,1.91,0,0,0,1.849-1.924v-4.972h5.247a1.623,1.623,0,0,0,1.674-1.574,1.643,1.643,0,0,0-1.674-1.6H69.014v-4.348h6.422A1.648,1.648,0,0,0,77.084,149.095Zm12.193,2.8a1.829,1.829,0,0,0-1.824,1.8v.1a3.718,3.718,0,0,0-3.473-1.974c-2.724,0-6.022,2.2-6.022,6.646,0,4.548,3.273,6.671,6.022,6.671a3.769,3.769,0,0,0,3.473-1.8,1.808,1.808,0,0,0,1.824,1.774,1.851,1.851,0,0,0,1.849-1.8v-9.62A1.868,1.868,0,0,0,89.278,151.893Zm-4.623,10.12c-1.524,0-3.048-1.2-3.048-3.548,0-2.324,1.524-3.523,3.048-3.523,1.249,0,2.948.9,2.948,3.523C87.6,161.113,85.9,162.013,84.655,162.013Zm19.44-10.12a1.91,1.91,0,0,0-1.749,1.3l-2.9,6.771-2.9-6.771a1.911,1.911,0,0,0-1.749-1.3,1.653,1.653,0,0,0-1.674,1.649,2.236,2.236,0,0,0,.2.85l4.3,9.22a1.973,1.973,0,0,0,1.824,1.4,2,2,0,0,0,1.824-1.4l4.3-9.22a2.236,2.236,0,0,0,.2-.85A1.653,1.653,0,0,0,104.095,151.893Zm9.395-.075a6.734,6.734,0,0,0-6.721,6.7,6.722,6.722,0,0,0,13.443,0A6.749,6.749,0,0,0,113.49,151.818Zm0,3.173a3.507,3.507,0,1,1-3.123,3.523A3.231,3.231,0,0,1,113.49,154.991Zm16.591-3.148a4.078,4.078,0,0,0-3.723,2.9v-1a1.824,1.824,0,1,0-3.648,0v9.545a1.824,1.824,0,0,0,3.648,0v-5.772a3.058,3.058,0,0,1,3.1-2.3c1.549,0,2.324-.7,2.324-1.7A1.592,1.592,0,0,0,130.081,151.843Zm6-1.374a1.8,1.8,0,1,0-1.849-1.8A1.851,1.851,0,0,0,136.078,150.469Zm0,1.424a1.84,1.84,0,0,0-1.824,1.849v9.52a1.824,1.824,0,1,0,3.648,0v-9.52A1.84,1.84,0,0,0,136.078,151.893Zm11.269,9.97c-.275-.025-.7.075-.949.075-.525,0-.75-.375-.75-1.1v-6.022H147.2a1.424,1.424,0,1,0,0-2.848h-1.549v-1.574a1.824,1.824,0,0,0-3.648,0v1.574h-.6a1.425,1.425,0,1,0,0,2.848h.6v5.9c0,3.8,1.874,4.373,3.673,4.373,1.874,0,2.973-.675,2.973-1.924A1.184,1.184,0,0,0,147.346,161.863Zm9.42-10.045a6.6,6.6,0,0,0-6.621,6.7c0,4.548,3.548,6.571,6.921,6.571a6.525,6.525,0,0,0,3.648-1,1.859,1.859,0,0,0,.875-1.5,1.187,1.187,0,0,0-1.224-1.249,3.669,3.669,0,0,0-1.349.425,4.3,4.3,0,0,1-1.8.375,3.03,3.03,0,0,1-3.273-2.4l6.846.1c1.5,0,2.274-.5,2.274-1.949A6.287,6.287,0,0,0,156.766,151.818Zm0,3.173a2.522,2.522,0,0,1,2.7,2.3h-5.522A2.622,2.622,0,0,1,156.766,154.991Zm13.068-3.173c-2.349,0-4.747,1.249-4.747,3.873,0,1.8,1.074,3.173,3.623,3.9l1.3.4c1.174.35,1.274.9,1.274,1.149,0,.5-.475,1-1.574,1a2.636,2.636,0,0,1-2.149-1.024,1.91,1.91,0,0,0-1.474-.825,1.323,1.323,0,0,0-1.4,1.374,2.753,2.753,0,0,0,.775,1.724,5.545,5.545,0,0,0,4.248,1.7c2.6,0,5.2-1.324,5.2-4.148,0-2.274-1.724-3.223-3.623-3.8l-1.524-.425c-1.049-.3-1.1-.8-1.1-1.049,0-.575.5-.974,1.3-.974a2.046,2.046,0,0,1,1.549.725,1.951,1.951,0,0,0,1.5.725,1.292,1.292,0,0,0,1.4-1.374,1.852,1.852,0,0,0-.45-1.174A5.108,5.108,0,0,0,169.834,151.818Zm18.813,0c-2.349,0-4.747,1.249-4.747,3.873,0,1.8,1.074,3.173,3.623,3.9l1.3.4c1.174.35,1.274.9,1.274,1.149,0,.5-.475,1-1.574,1a2.636,2.636,0,0,1-2.149-1.024,1.91,1.91,0,0,0-1.474-.825,1.323,1.323,0,0,0-1.4,1.374,2.753,2.753,0,0,0,.775,1.724,5.545,5.545,0,0,0,4.248,1.7c2.6,0,5.2-1.324,5.2-4.148,0-2.274-1.724-3.223-3.623-3.8l-1.524-.425c-1.049-.3-1.1-.8-1.1-1.049,0-.575.5-.974,1.3-.974a2.046,2.046,0,0,1,1.549.725,1.951,1.951,0,0,0,1.5.725,1.292,1.292,0,0,0,1.4-1.374,1.852,1.852,0,0,0-.45-1.174A5.108,5.108,0,0,0,188.647,151.818Zm13.318,0a6.6,6.6,0,0,0-6.621,6.7c0,4.548,3.548,6.571,6.921,6.571a6.524,6.524,0,0,0,3.648-1,1.859,1.859,0,0,0,.875-1.5,1.187,1.187,0,0,0-1.224-1.249,3.669,3.669,0,0,0-1.349.425,4.3,4.3,0,0,1-1.8.375,3.03,3.03,0,0,1-3.273-2.4l6.846.1c1.5,0,2.274-.5,2.274-1.949A6.287,6.287,0,0,0,201.965,151.818Zm0,3.173a2.522,2.522,0,0,1,2.7,2.3h-5.522A2.622,2.622,0,0,1,201.965,154.991Zm18.165,5.8a2.458,2.458,0,0,0-1.374.55,2.915,2.915,0,0,1-1.824.575,3.468,3.468,0,0,1,0-6.921,2.915,2.915,0,0,1,1.824.575,2.458,2.458,0,0,0,1.374.55,1.422,1.422,0,0,0,1.449-1.4,2.285,2.285,0,0,0-1.024-1.7,5.762,5.762,0,0,0-3.748-1.2,6.634,6.634,0,1,0,0,13.268,5.762,5.762,0,0,0,3.748-1.2,2.285,2.285,0,0,0,1.024-1.7A1.422,1.422,0,0,0,220.13,160.788Zm10.369,1.074c-.275-.025-.7.075-.949.075-.525,0-.75-.375-.75-1.1v-6.022h1.549a1.424,1.424,0,1,0,0-2.848H228.8v-1.574a1.824,1.824,0,1,0-3.648,0v1.574h-.6a1.425,1.425,0,1,0,0,2.848h.6v5.9c0,3.8,1.874,4.373,3.673,4.373,1.874,0,2.973-.675,2.973-1.924A1.184,1.184,0,0,0,230.5,161.863Zm5.4-11.394a1.8,1.8,0,1,0-1.849-1.8A1.851,1.851,0,0,0,235.9,150.469Zm0,1.424a1.84,1.84,0,0,0-1.824,1.849v9.52a1.824,1.824,0,1,0,3.648,0v-9.52A1.84,1.84,0,0,0,235.9,151.893Zm11.069-.075a6.734,6.734,0,0,0-6.721,6.7,6.722,6.722,0,0,0,13.443,0A6.749,6.749,0,0,0,246.966,151.818Zm0,3.173a3.507,3.507,0,1,1-3.123,3.523A3.231,3.231,0,0,1,246.966,154.991Zm17.041-3.148a4.137,4.137,0,0,0-4.173,2.9v-1a1.824,1.824,0,1,0-3.648,0v9.545a1.824,1.824,0,0,0,3.648,0v-5.772a2.931,2.931,0,0,1,2.8-2.574c1.374,0,2.4.9,2.4,2.973v5.372a1.824,1.824,0,0,0,3.648,0v-5.372C268.679,153.567,266.555,151.843,264.007,151.843Zm9.27,13.243a2.107,2.107,0,0,0,2.074-2.1,2.086,2.086,0,1,0-2.074,2.1Z" transform="translate(6548.369 -4435.465) rotate(-2)" fill="#fff"/>
  </g>
</svg>
